<?xml version="1.0" standalone="no"?>
<!DOCTYPE svg PUBLIC "-//W3C//DTD SVG 20010904//EN"
 "http://www.w3.org/TR/2001/REC-SVG-20010904/DTD/svg10.dtd">
<svg version="1.0" xmlns="http://www.w3.org/2000/svg"
 width="360.000000pt" height="360.000000pt" viewBox="0 0 360.000000 360.000000"
 preserveAspectRatio="xMidYMid meet">

<g transform="translate(0.000000,360.000000) scale(0.100000,-0.100000)"
fill="#000000" stroke="none">
<path d="M1610 3590 c-220 -28 -423 -88 -615 -185 -506 -255 -862 -730 -966
-1290 -33 -172 -33 -458 0 -630 134 -721 695 -1298 1403 -1445 593 -122 1212
62 1635 488 592 596 701 1492 269 2202 -277 454 -724 756 -1252 846 -110 18
-373 26 -474 14z m-778 -756 c93 -29 132 -57 124 -90 -5 -17 20 -45 122 -144
70 -68 229 -225 354 -349 l228 -225 35 34 35 34 100 -99 100 -99 37 36 38 37
362 -357 c394 -388 402 -398 403 -503 0 -83 -24 -140 -80 -193 -84 -78 -202
-95 -298 -43 -42 23 -752 716 -752 734 0 6 13 21 30 34 16 13 30 29 30 34 0 6
-43 53 -95 105 l-95 94 36 37 35 36 -358 351 c-284 279 -360 349 -371 340 -25
-21 -66 38 -90 128 -23 84 -25 94 -18 94 3 0 42 -12 88 -26z m1772 -15 l39
-11 -139 -140 -139 -140 100 -94 100 -94 136 136 136 136 12 -32 c19 -55 14
-172 -11 -237 -30 -82 -121 -171 -206 -202 -54 -21 -75 -23 -156 -19 l-92 5
-123 -118 c-67 -66 -124 -119 -127 -119 -2 0 -32 27 -66 60 l-62 60 -31 -30
c-17 -16 -35 -30 -41 -30 -5 0 -30 20 -54 45 l-44 45 156 158 157 157 -6 86
c-12 183 72 310 246 374 44 17 163 19 215 4z m-988 -1096 l44 -47 -35 -36 -35
-36 60 -59 c33 -33 60 -64 60 -70 0 -6 -58 -68 -129 -139 -126 -125 -129 -130
-119 -158 6 -16 8 -62 6 -102 -14 -216 -202 -365 -419 -332 -86 13 -86 14 61
161 l135 135 -98 97 -97 98 -138 -138 -139 -139 -13 46 c-19 70 -9 183 24 249
29 60 102 134 162 165 64 33 155 47 220 33 l56 -11 172 165 c94 90 173 165
175 165 2 0 23 -21 47 -47z"/>
</g>
</svg>
